<svg width="25" height="25" viewBox="0 0 25 25" fill="none" xmlns="http://www.w3.org/2000/svg">
<circle cx="12.5" cy="12.5" r="12.5" fill="#F21D2F"/>
<path d="M10.9563 21V7.90909H14.0415V21H10.9563ZM12.5075 6.05114C12.0188 6.05114 11.5984 5.8892 11.2461 5.56534C10.8938 5.23579 10.7177 4.84091 10.7177 4.38068C10.7177 3.91477 10.8938 3.51989 11.2461 3.19602C11.5984 2.86648 12.0188 2.7017 12.5075 2.7017C13.0018 2.7017 13.4222 2.86648 13.7688 3.19602C14.1211 3.51989 14.2972 3.91477 14.2972 4.38068C14.2972 4.84091 14.1211 5.23579 13.7688 5.56534C13.4222 5.8892 13.0018 6.05114 12.5075 6.05114Z" fill="black"/>
</svg>
